<?xml version="1.0" encoding="UTF-8"?>
<svg id="Layer_2" data-name="Layer 2" xmlns="http://www.w3.org/2000/svg" viewBox="0 0 453.11 452.38">
  <defs>
    <style>
      .cls-1 {
        fill: #231f20;
        stroke-width: 0px;
      }
    </style>
  </defs>
  <polygon class="cls-1" points="94.13 452.38 94.13 255.2 0 255.2 94.13 0 94.13 197.18 188.25 197.18 94.13 452.38"/>
  <path class="cls-1" d="M115.59,0v175.71h337.52V0H115.59ZM203.99,61.92c-3.59-3.35-6.29-5.03-8.86-6.17-3.05-1.38-5.93-1.92-8.86-1.92-6.41,0-11.26,2.58-14.55,7.67-3.29,5.21-4.97,12.82-4.97,22.88s1.68,17.67,4.97,22.76c3.29,5.15,8.15,7.73,14.55,7.73,3.05,0,6.05-.66,8.92-1.98,2.81-1.26,5.39-2.99,8.8-6.11v19.64c-2.81,1.44-5.75,2.52-8.8,3.23-3.05.72-6.23,1.08-9.82,1.08-11.92,0-21.08-3.95-27.49-11.92-6.35-7.97-9.52-19.4-9.52-34.44s3.17-26.53,9.52-34.5c6.41-7.97,15.57-11.92,27.49-11.92,3.59,0,6.77.36,9.88,1.08,3.17.72,6.05,1.8,8.74,3.23v19.64ZM282.22,55.03h-22.7v73.96h-17.67V55.03h-22.7v-15.45h63.07v15.45ZM354.22,55.15h-38.03v19.88h34.62v15.57h-34.62v38.39h-17.67V39.58h55.7v15.57ZM429.62,152.35h-62.53v-11.98h62.53v11.98Z"/>
</svg>