<?xml version="1.0" encoding="UTF-8"?>
<svg id="Layer_2" data-name="Layer 2" xmlns="http://www.w3.org/2000/svg" viewBox="0 0 387.09 96.12">
  <defs>
    <style>
      .cls-1 {
        fill: #fff;
        stroke-width: 0px;
      }
    </style>
  </defs>
  <polygon class="cls-1" points="20 96.12 20 54.22 0 54.22 20 0 20 41.89 40 41.89 20 96.12"/>
  <path class="cls-1" d="M24.56,0v37.33h71.71V0H24.56ZM43.34,13.16c-.76-.71-1.34-1.07-1.88-1.31-.65-.29-1.26-.41-1.88-.41-1.36,0-2.39.55-3.09,1.63-.7,1.11-1.06,2.72-1.06,4.86s.36,3.75,1.06,4.84c.7,1.09,1.73,1.64,3.09,1.64.65,0,1.29-.14,1.9-.42.6-.27,1.15-.64,1.87-1.3v4.17c-.6.31-1.22.53-1.87.69-.65.15-1.32.23-2.09.23-2.53,0-4.48-.84-5.84-2.53-1.35-1.69-2.02-4.12-2.02-7.32s.67-5.64,2.02-7.33c1.36-1.69,3.31-2.53,5.84-2.53.76,0,1.44.08,2.1.23.67.15,1.29.38,1.86.69v4.17ZM59.96,11.69h-4.82v15.72h-3.75v-15.72h-4.82v-3.28h13.4v3.28ZM75.26,11.72h-8.08v4.22h7.35v3.31h-7.35v8.16h-3.75V8.41h11.83v3.31ZM91.28,32.37h-13.28v-2.54h13.28v2.54Z"/>
  <g>
    <path class="cls-1" d="M51.16,49.44h17.16v4.8h-11.71v5.94h10.61v4.8h-10.61v7.21h11.71v4.8h-17.16v-27.54Z"/>
    <path class="cls-1" d="M85.35,77.13c-2.56,0-4.41-.66-5.53-1.99-1.12-1.31-1.68-3.52-1.68-6.62v-16.09h-5.48v-4.15h10.88v20.24c0,1.61.26,2.77.76,3.45s1.35,1.01,2.56,1.01h4.32v4.15h-5.83Z"/>
    <path class="cls-1" d="M97.83,74.74c-1.83-1.86-2.75-4.52-2.75-7.97s.87-6.03,2.64-8.01c1.75-1.96,4.15-2.93,7.23-2.93,2.9,0,5.35.85,7.1,2.71s2.53,4.5,2.53,7.67v2.2h-14c.02,1.64.5,2.84,1.44,3.63.94.79,2.36,1.2,4.22,1.2,1.24,0,2.47-.18,3.69-.54,1.13-.35,2.38-.87,3.78-1.7v4.96c-1.25.52-2.53.9-3.84,1.16-1.33.28-2.71.39-4.04.39-3.6,0-6.16-.92-8.01-2.79ZM109.14,64.35c-.02-1.44-.39-2.53-1.09-3.25-.66-.68-1.72-1.09-3.1-1.09-1.27,0-2.27.37-3.01,1.13-.74.76-1.18,1.84-1.31,3.23l8.5-.02Z"/>
    <path class="cls-1" d="M119.53,48.28h5.41v15.07l6.49-7.03h6.55l-7.82,7.71,8.26,12.95h-5.98l-5.66-9.67-1.84,1.77v7.9h-5.41v-28.71Z"/>
    <path class="cls-1" d="M154.32,77.06c-3.12,0-5.2-.5-6.29-1.5-1.09-.98-1.64-2.82-1.64-5.5v-9.59h-5.28v-4.15h5.28v-5.65l5.41-2.4v8.04h7.07v4.15h-7.07v9.85c0,.9.22,1.57.68,1.97.5.44,1.25.61,2.23.61h4.15v4.15h-4.54Z"/>
    <path class="cls-1" d="M166.26,56.32h4.87l.53,3.21c.54-1.2,1.35-2.1,2.44-2.75,1.11-.65,2.4-.96,3.78-.96.74,0,1.57.09,2.23.26.72.2,1.48.5,2.01.79v5.15c-.59-.53-1.27-.94-2.07-1.22-.79-.28-1.66-.41-2.6-.41-1.16,0-2.16.2-3.01.59-.87.39-1.53.98-1.99,1.73-.24.39-.48.96-.61,1.72-.13.72-.18,1.57-.18,3.02v9.52h-5.41v-20.66Z"/>
    <path class="cls-1" d="M187.1,80.69h2.2c1.03,0,1.92-.17,2.44-.55.57-.42,1.14-1.51,1.57-2.62l.41-1.11-7.86-20.09h5.68l4.72,13.41,4.52-13.41h5.68l-8.58,22.89c-.79,2.08-1.66,3.43-2.6,4.26-.94.83-2.16,1.33-3.71,1.33h-4.46v-4.11Z"/>
    <path class="cls-1" d="M212.74,74.64c-1.79-1.94-2.69-4.59-2.69-7.97s.9-6.07,2.71-8.01c1.81-1.92,4.3-2.88,7.45-2.88,1.12,0,2.21.13,3.25.39,1.01.26,2.05.66,3.06,1.2v4.94c-.79-.68-1.72-1.22-2.58-1.57-.87-.35-1.9-.53-2.95-.53-1.84,0-3.14.59-4.04,1.68-.94,1.13-1.42,2.73-1.42,4.78s.48,3.63,1.42,4.76c.94,1.11,2.29,1.66,4.06,1.66,1.03,0,2.01-.18,2.93-.54.79-.29,1.72-.79,2.58-1.59v4.96c-.98.57-1.9.9-2.93,1.18-1.03.28-2.05.41-3.32.41-3.23,0-5.74-.96-7.53-2.88Z"/>
    <path class="cls-1" d="M233.06,72.76l10.88-12.4h-10.44v-4.04h16.51v4.22l-10.87,12.4h10.87v4.04h-16.95v-4.22Z"/>
    <path class="cls-1" d="M256,56.32h4.83l.53,3.1c.39-1.14,1.05-2.03,1.96-2.66.92-.63,2.05-.94,3.36-.94,1.94,0,3.41.65,4.41,1.94,1,1.31,1.49,3.25,1.49,5.81v13.41h-5.37v-12.58c0-1.51-.2-2.58-.63-3.23-.42-.65-1.14-.96-2.03-.96-1.05,0-1.77.44-2.34,1.31-.54.83-.85,1.94-.85,3.63v11.83h-5.37v-20.66Z"/>
    <path class="cls-1" d="M278.1,80.69h2.2c1.03,0,1.92-.17,2.44-.55.57-.42,1.14-1.51,1.57-2.62l.41-1.11-7.86-20.09h5.68l4.72,13.41,4.52-13.41h5.68l-8.58,22.89c-.79,2.08-1.66,3.43-2.6,4.26-.94.83-2.16,1.33-3.71,1.33h-4.46v-4.11Z"/>
    <path class="cls-1" d="M326.61,73.85c-1.96-2.45-2.93-5.98-2.93-10.61s.98-8.17,2.93-10.63c1.97-2.45,4.8-3.67,8.47-3.67,1.11,0,2.08.11,3.04.33.98.22,1.86.55,2.69,1v6.05c-1.11-1.03-1.94-1.55-2.73-1.9-.94-.42-1.83-.59-2.73-.59-1.97,0-3.47.79-4.48,2.36-1.01,1.6-1.53,3.95-1.53,7.05s.52,5.44,1.53,7.01c1.01,1.59,2.51,2.38,4.48,2.38.94,0,1.86-.2,2.75-.61.87-.39,1.66-.92,2.71-1.88v6.05c-.87.44-1.77.77-2.71,1-.94.22-1.92.33-3.03.33-3.67,0-6.49-1.22-8.47-3.67Z"/>
    <path class="cls-1" d="M352.48,54.2h-6.99v-4.76h19.43v4.76h-6.99v22.78h-5.44v-22.78Z"/>
    <path class="cls-1" d="M369.93,49.44h17.16v4.8h-11.71v6.12h10.66v4.8h-10.66v11.83h-5.44v-27.54Z"/>
  </g>
</svg>