<?xml version="1.0" encoding="UTF-8"?>
<svg id="Warstwa_2" data-name="Warstwa 2" xmlns="http://www.w3.org/2000/svg" viewBox="0 0 496.04 299.71">
  <defs>
    <style>
      .cls-1 {
        fill: none;
      }

      .cls-2 {
        fill: #f6b42c;
      }

      .cls-3 {
        fill: #315b7a;
      }

      .cls-4 {
        fill: #aa6419;
      }

      .cls-5 {
        fill: #356589;
      }
    </style>
  </defs>
  <g id="Warstwa_1-2" data-name="Warstwa 1">
    <g>
      <g>
        <g>
          <polygon class="cls-5" points="248.02 54.32 248.02 63.99 444.22 124.52 444.22 119.91 248.02 54.32"/>
          <polygon class="cls-5" points="248.02 76.23 248.02 83.21 417.22 130.23 417.22 125.85 248.02 76.23"/>
          <polygon class="cls-5" points="248.02 96.78 248.02 103.67 397.42 137.28 397.42 133.85 248.02 96.78"/>
          <polygon class="cls-5" points="248.02 117.74 248.02 121.91 374.02 145.24 374.02 141.64 248.02 116.44 248.02 117.74"/>
          <polygon class="cls-5" points="248.02 135.64 248.02 141.04 338.02 153.64 338.02 150.49 248.02 135.64"/>
          <polygon class="cls-5" points="248.02 152.15 248.02 157.03 327.22 164.75 327.22 161.44 248.02 152.15"/>
          <polygon class="cls-5" points="248.02 167.76 248.02 172.74 320.02 176.76 320.02 173.5 248.02 167.76"/>
          <polygon class="cls-5" points="248.02 181.56 248.02 186.88 327.22 190.56 327.22 186.63 248.02 181.56"/>
          <polygon class="cls-3" points="51.82 119.91 180.84 76.78 180.84 84.72 51.82 124.52 51.82 119.91"/>
          <polygon class="cls-3" points="248.02 54.32 248.02 63.99 205.34 77.16 205.34 68.59 221.29 63.26 230 60.35 248.02 54.32"/>
          <polygon class="cls-3" points="78.82 125.85 180.84 95.93 180.84 101.88 78.82 130.23 78.82 125.85"/>
          <polygon class="cls-3" points="248.02 76.23 248.02 83.21 205.34 95.07 205.34 88.75 248.02 76.23"/>
          <polygon class="cls-3" points="98.62 133.85 180.84 113.45 180.84 118.78 98.62 137.29 98.62 133.85"/>
          <polygon class="cls-3" points="248.02 96.79 248.02 103.66 205.34 113.27 205.34 107.37 248.02 96.79"/>
          <polygon class="cls-3" points="122.02 141.63 180.84 129.87 180.84 134.35 122.02 145.24 122.02 141.63"/>
          <polygon class="cls-3" points="248.02 116.44 248.02 121.91 205.34 129.82 205.34 124.97 248.02 116.44"/>
          <polygon class="cls-3" points="158.02 150.49 180.84 146.73 180.84 150.44 158.02 153.64 158.02 150.49"/>
          <polygon class="cls-3" points="248.02 135.64 248.02 141.04 205.34 147.02 205.34 142.68 248.02 135.64"/>
          <polygon class="cls-3" points="168.82 161.44 180.84 160.03 180.84 163.58 168.82 164.75 168.82 161.44"/>
          <polygon class="cls-3" points="248.02 152.15 248.02 157.03 205.34 161.19 205.34 157.16 248.02 152.15"/>
          <polygon class="cls-3" points="176.02 173.5 180.84 173.12 180.84 176.48 176.02 176.75 176.02 173.5"/>
          <polygon class="cls-3" points="248.02 167.75 248.02 172.75 205.34 175.12 205.34 171.16 248.02 167.75"/>
          <polygon class="cls-3" points="168.82 186.63 180.84 185.86 180.84 190 168.82 190.56 168.82 186.63"/>
          <polygon class="cls-3" points="248.02 181.56 248.02 186.89 205.34 188.87 205.34 184.29 248.02 181.56"/>
        </g>
        <g>
          <polygon class="cls-2" points="183.54 225.39 197.04 225.39 197.04 247.89 183.54 246.08 183.54 225.39"/>
          <polygon class="cls-4" points="198.82 225.39 202.64 225.39 202.64 247.1 198.82 247.89 198.82 225.39"/>
          <polygon class="cls-2" points="197.02 51.82 197.02 221.02 183.52 221.02 183.52 59.22 197.02 51.82"/>
          <polygon class="cls-4" points="230 60.35 221.29 63.26 202.64 58.36 202.64 221.02 198.82 221.02 198.82 51.82 230 60.35"/>
          <polygon class="cls-4" points="230.01 60.35 221.29 63.26 230 60.35 230.01 60.35"/>
        </g>
      </g>
      <rect class="cls-1" width="496.04" height="299.71"/>
    </g>
  </g>
</svg>